<?xml version="1.0" encoding="iso-8859-1"?>
<!-- Uploaded to: SVG Repo, www.svgrepo.com, Generator: SVG Repo Mixer Tools -->
<svg fill="#000000" height="800px" width="800px" version="1.1" id="Layer_1" xmlns="http://www.w3.org/2000/svg" xmlns:xlink="http://www.w3.org/1999/xlink" 
	 viewBox="0 0 512 512" xml:space="preserve">
<g>
	<g>
		<path d="M501.551,9.872c-5.77,0-10.449,4.678-10.449,10.449v17.932h-25.991V20.321c0-5.771-4.679-10.449-10.449-10.449
			c-5.771,0-10.449,4.678-10.449,10.449l-0.001,87.031H67.788l-0.001-87.031c0-5.771-4.679-10.449-10.449-10.449
			c-5.77,0-10.449,4.678-10.449,10.449v17.932H20.898V20.321c0-5.771-4.678-10.449-10.449-10.449C4.678,9.872,0,14.55,0,20.321
			l0.002,471.359c0,5.77,4.678,10.449,10.449,10.449c5.77,0,10.449-4.679,10.449-10.449v-17.932h25.992v17.932
			c0,5.77,4.679,10.449,10.449,10.449c5.77,0,10.449-4.679,10.449-10.449v-87.031h376.42v87.031c0,5.77,4.679,10.449,10.449,10.449
			c5.771,0,10.449-4.679,10.449-10.449v-17.932H491.1v17.932c0,5.77,4.679,10.449,10.449,10.449c5.771,0,10.451-4.679,10.451-10.449
			V20.321C512,14.551,507.321,9.872,501.551,9.872z M46.89,266.449l0.001,48.202H20.899v-48.202H46.89z M20.899,245.552v-48.202
			H46.89v48.202H20.899z M20.898,59.15h25.991l0.001,48.201H20.898V59.15z M46.889,128.249l0.001,48.202H20.899l-0.001-48.202
			H46.889z M20.899,335.55h25.992v48.202H20.9L20.899,335.55z M46.892,452.851H20.9V404.65h25.992V452.851z M157.116,383.752
			c0.066-34.956,28.528-63.375,63.516-63.375h70.762c34.963,0.006,63.413,28.421,63.49,63.375H157.116z M444.212,256.001
			l-0.002,127.751h-68.432c-0.075-46.474-37.894-84.266-84.382-84.273h-70.781c-46.492,0-84.326,37.795-84.393,84.273H67.79
			l-0.002-127.751V128.249h376.424V256.001z M491.1,452.851h-25.992V404.65H491.1V452.851z M491.1,383.752h-25.992l0.001-48.202
			H491.1V383.752z M491.101,314.652h-25.992l0.001-48.202h25.991V314.652z M491.101,245.552H465.11v-48.202h25.991V245.552z
			 M491.102,176.451H465.11l0.001-48.202h25.991V176.451z M491.102,107.351H465.11l0.001-48.201h25.991V107.351z"/>
	</g>
</g>
<g>
	<g>
		<path d="M293.161,452.851h-5.525c-5.77,0-10.449,4.679-10.449,10.449c0,5.77,4.679,10.449,10.449,10.449h5.525
			c5.77,0,10.449-4.679,10.449-10.449C303.61,457.53,298.931,452.851,293.161,452.851z"/>
	</g>
</g>
<g>
	<g>
		<path d="M413.943,452.851h-80.865c-5.77,0-10.449,4.679-10.449,10.449c0,5.77,4.679,10.449,10.449,10.449h80.865
			c5.77,0,10.449-4.679,10.449-10.449C424.392,457.53,419.714,452.851,413.943,452.851z"/>
	</g>
</g>
<g>
	<g>
		<path d="M313.353,157.104c-15.311-15.317-35.668-23.755-57.345-23.763c-0.002,0-0.004,0-0.006,0c-0.001,0-0.002,0-0.002,0
			c-0.002,0-0.004,0-0.005,0c-44.704,0-81.081,36.372-81.089,81.078c0,0.004,0,0.007,0,0.012c0,0.001,0,0.003,0,0.005
			c0,0.006,0.001,0.01,0.001,0.017c0.009,44.699,36.374,81.066,81.078,81.076c0.001,0,0.022,0,0.022,0
			c44.699,0,81.076-36.371,81.087-81.077C337.099,192.79,328.667,172.423,313.353,157.104z M298.574,171.878
			c8.587,8.59,14.252,19.318,16.511,30.983c-23.932-4.677-42.828-23.577-47.505-47.509
			C279.251,157.614,289.983,163.285,298.574,171.878z M244.423,155.368c-4.681,23.921-23.57,42.803-47.489,47.484
			C201.615,178.937,220.5,160.052,244.423,155.368z M256.007,274.629h-0.018c-29.902-0.006-54.767-21.928-59.401-50.541
			c25.503-3.552,47.238-19.003,59.411-40.558c12.171,21.549,33.904,37.001,59.411,40.556
			C310.776,252.704,285.905,274.629,256.007,274.629z"/>
	</g>
</g>
</svg>