<?xml version="1.0" encoding="iso-8859-1"?>
<!-- Uploaded to: SVG Repo, www.svgrepo.com, Generator: SVG Repo Mixer Tools -->
<svg fill="#000000" height="800px" width="800px" version="1.1" id="Layer_1" xmlns="http://www.w3.org/2000/svg" xmlns:xlink="http://www.w3.org/1999/xlink" 
	 viewBox="0 0 512 512" xml:space="preserve">
<g>
	<g>
		<path d="M25.72,101.947H10.576c-5.764,0-10.439,4.673-10.439,10.439c0,5.765,4.675,10.439,10.439,10.439H25.72
			c5.764,0,10.439-4.673,10.439-10.439C36.159,106.62,31.485,101.947,25.72,101.947z"/>
	</g>
</g>
<g>
	<g>
		<path d="M112.414,0.11c-5.764,0-10.439,4.673-10.439,10.439v15.144c0,5.765,4.675,10.439,10.439,10.439
			c5.764,0,10.439-4.673,10.439-10.439V10.548C122.853,4.783,118.178,0.11,112.414,0.11z"/>
	</g>
</g>
<g>
	<g>
		<path d="M58.494,43.702L47.786,32.994c-4.077-4.076-10.685-4.075-14.764,0c-4.076,4.076-4.076,10.686,0,14.763L43.73,58.466
			c2.039,2.039,4.709,3.058,7.381,3.058c2.67,0,5.343-1.02,7.382-3.059C62.57,54.388,62.57,47.779,58.494,43.702z"/>
	</g>
</g>
<g>
	<g>
		<path d="M191.806,32.994c-4.077-4.076-10.685-4.075-14.764,0l-10.709,10.709c-4.076,4.076-4.076,10.686,0,14.763
			c2.039,2.039,4.709,3.058,7.381,3.058c2.671,0,5.343-1.02,7.382-3.059l10.709-10.708C195.883,43.68,195.884,37.07,191.806,32.994z
			"/>
	</g>
</g>
<g>
	<g>
		<path d="M57.756,167.043c-4.078-4.076-10.686-4.076-14.764,0l-9.97,9.97c-4.076,4.077-4.076,10.687,0,14.764
			c2.039,2.039,4.709,3.057,7.381,3.057c2.672,0,5.343-1.019,7.382-3.057l9.97-9.97C61.832,177.73,61.832,171.12,57.756,167.043z"/>
	</g>
</g>
<g>
	<g>
		<path d="M501.561,227.578H398.803c-5.764,0-10.439,4.673-10.439,10.439s4.674,10.439,10.439,10.439h92.319v141.819h-65.439
			c-5.764,0-10.439,4.673-10.439,10.439s4.674,10.439,10.439,10.439h75.878c5.764,0,10.439-4.673,10.439-10.439V238.017
			C512,232.252,507.326,227.578,501.561,227.578z"/>
	</g>
</g>
<g>
	<g>
		<path d="M474.121,254.334h-96.879c-5.764,0-10.439,4.673-10.439,10.439v91.862c0,5.765,4.674,10.439,10.439,10.439h96.879
			c5.765,0,10.439-4.673,10.439-10.439v-91.862C484.559,259.007,479.885,254.334,474.121,254.334z M463.683,346.196h-76.001v-70.984
			h76.001V346.196z"/>
	</g>
</g>
<g>
	<g>
		<path d="M293.822,212.296c-6.433,0-11.669,5.234-11.669,11.669c0,6.433,5.235,11.667,11.669,11.667
			c6.433,0,11.666-5.234,11.667-11.667C305.49,217.53,300.255,212.296,293.822,212.296z"/>
	</g>
</g>
<g>
	<g>
		<path d="M217.681,212.296c-6.433,0-11.667,5.234-11.667,11.669c0,6.433,5.234,11.667,11.667,11.667
			c6.433,0,11.669-5.234,11.669-11.667C229.35,217.53,224.115,212.296,217.681,212.296z"/>
	</g>
</g>
<g>
	<g>
		<path d="M265.996,261.478h-20.402c-5.764,0-10.439,4.674-10.439,10.439c0,11.38,9.259,20.64,20.64,20.64s20.639-9.259,20.64-20.64
			C276.435,266.152,271.761,261.478,265.996,261.478z"/>
	</g>
</g>
<g>
	<g>
		<path d="M10.576,491.013h-0.137C4.674,491.013,0,495.686,0,501.452s4.674,10.439,10.439,10.439h0.137
			c5.764,0,10.439-4.673,10.439-10.439S16.34,491.013,10.576,491.013z"/>
	</g>
</g>
<g>
	<g>
		<path d="M501.064,491.012h-0.137c-5.764,0-10.439,4.673-10.439,10.439s4.674,10.439,10.439,10.439h0.137
			c5.764,0,10.439-4.673,10.439-10.439S506.829,491.012,501.064,491.012z"/>
	</g>
</g>
<g>
	<g>
		<path d="M101.308,245.7H10.49c-5.764,0-10.439,4.673-10.439,10.439v121.091c0,5.765,4.674,10.439,10.439,10.439h90.818
			c5.764,0,10.439-4.673,10.439-10.439V256.139C111.747,250.373,107.072,245.7,101.308,245.7z M90.869,366.791h-69.94v-48.019h69.94
			V366.791z M90.869,297.894h-69.94v-31.317h69.94V297.894z"/>
	</g>
</g>
<g>
	<g>
		<path d="M359.146,417.245c-5.764,0-10.439,4.673-10.439,10.439v0.137c0,5.765,4.674,10.439,10.439,10.439
			s10.439-4.673,10.439-10.439v-0.137C369.585,421.918,364.911,417.245,359.146,417.245z"/>
	</g>
</g>
<g>
	<g>
		<path d="M112.414,189.684c-5.764,0-10.439,4.673-10.439,10.439v14.1c0,5.765,4.673,10.44,10.439,10.44
			c5.764,0,10.439-4.673,10.439-10.439v-14.101C122.853,194.358,118.178,189.684,112.414,189.684z"/>
	</g>
</g>
<g>
	<g>
		<path d="M467.157,491.013h-57.915v-70.582c0-20.348-12.28-39.675-29.861-47.001l-67.182-27.992
			c-2.388-0.995-3.932-3.31-3.932-5.899v-16.255l27.287-15.646c0.19-0.109,0.377-0.224,0.56-0.346
			c13.662-9.023,22.633-25.069,23.998-42.923c0.021-0.264,0.03-9.462,0.03-9.462c13.556-4.409,23.382-17.166,23.382-32.174
			c0-15.008-9.827-27.763-23.383-32.172v-17.814c8.273-10.212,32.168-43.155,26.801-77.1c-3.175-20.085-15.693-36.564-37.204-48.976
			c-31.348-18.089-63.922-17.331-94.199,2.194c-13.926,8.981-24.206,19.975-30.024,27.061c-10.89-4.237-30.836-9.189-52.601-0.889
			c-2.885-4.676-6.296-9.009-10.218-12.932c-13.431-13.431-31.288-20.827-50.282-20.827s-36.85,7.396-50.281,20.827
			c-13.431,13.431-20.828,31.287-20.828,50.281c0,18.993,7.397,36.85,20.828,50.281c13.77,13.769,32.012,20.793,50.328,20.793
			c12.802,0,25.635-3.446,37.007-10.405c0.689,0.948,1.329,1.798,1.897,2.527v14.979c-13.556,4.409-23.382,17.166-23.382,32.174
			s9.826,27.764,23.382,32.174c0,0,0.01,9.198,0.03,9.462c1.371,17.928,10.279,33.973,23.83,42.923
			c0.187,0.123,0.377,0.24,0.572,0.352l27.443,15.689v16.206c0,2.588-1.544,4.903-3.932,5.899l-67.182,27.993
			c-17.582,7.326-29.861,26.654-29.861,47v70.582H44.347c-5.764,0-10.439,4.673-10.439,10.439s4.674,10.439,10.439,10.439h422.81
			c5.764,0,10.439-4.673,10.439-10.439S472.921,491.013,467.157,491.013z M171.137,99.175c25.836-16.32,51.238-1.884,52.259-1.289
			c4.787,2.858,10.976,1.451,14.056-3.197c0.109-0.163,10.988-16.404,29.4-28.277c23.603-15.22,47.977-15.777,72.45-1.657
			c15.983,9.222,24.816,20.373,27.007,34.091c3.412,21.365-10.117,43.996-18.382,55.468c-0.277-0.222-0.554-0.447-0.835-0.672
			c-13.366-10.765-29.998-24.162-48.143-24.162c-21.805,0-30.979,11.371-38.351,20.507c-7.182,8.901-12.371,15.333-29.849,15.333
			c-16.555,0-25.776-3.834-33.912-7.217c-5.603-2.33-11.298-4.698-17.82-4.698c-4.488,0-9.369,1.122-14.876,4.151
			c-5.342-8.084-12.435-21.653-10.616-34.624C154.833,113.607,160.593,105.836,171.137,99.175z M132.849,120.032
			c-1.781,12.696,1.567,24.969,6.089,34.996c-19.559,12.202-45.413,9.505-62.042-7.125c-9.488-9.487-14.714-22.101-14.714-35.518
			c0-13.417,5.226-26.031,14.714-35.518c9.487-9.487,22.101-14.711,35.517-14.711c13.418,0,26.031,5.225,35.518,14.711
			c2.547,2.548,4.79,5.339,6.719,8.338C142.102,94.631,134.771,106.321,132.849,120.032z M186.473,289.7
			c-7.977-5.401-13.272-15.278-14.232-26.546v-17.037c0-5.765-4.674-10.439-10.439-10.439c-7.137,0-12.943-5.807-12.943-12.943
			s5.807-12.943,12.943-12.943c5.764,0,10.439-4.673,10.439-10.439V176.94c5.71-4.053,8.172-3.055,16.581,0.442
			c8.948,3.72,21.204,8.818,41.928,8.818c27.458,0,38.231-13.352,46.097-23.1c6.41-7.944,10.279-12.74,22.103-12.74
			c10.782,0,24.237,10.837,35.047,19.544c1.807,1.455,3.555,2.86,5.265,4.202v25.249c0,5.765,4.674,10.439,10.439,10.439
			c7.137,0,12.943,5.807,12.943,12.943s-5.806,12.941-12.943,12.941c-5.764,0-10.439,4.673-10.439,10.439v17.035
			c-0.948,11.038-6.437,21.155-14.406,26.551l-56.046,32.136c-0.19,0.11-0.377,0.224-0.56,0.346c-7.827,5.168-17.169,5.168-24.996,0
			c-0.187-0.123-0.377-0.241-0.572-0.352L186.473,289.7z M287.41,340.172c-7.488,9.907-19.062,15.742-31.608,15.742
			c-12.607,0-24.221-5.881-31.706-15.866c0.003-0.17,0.019-0.337,0.019-0.508v-4.271l7.932,4.535
			c7.327,4.759,15.515,7.138,23.705,7.138c8.191,0,16.382-2.381,23.711-7.142l7.924-4.543v4.284
			C287.388,339.751,287.406,339.96,287.41,340.172z M170.204,408.593v82.42H123.14V420.43c0-11.766,7.315-23.687,17.014-27.729
			l67.182-27.993c2.601-1.085,4.965-2.54,7.046-4.283c7.399,6.968,16.405,11.93,26.242,14.456h-18.284
			c-4.776,0-8.943,3.241-10.117,7.872l-3.908,15.401h-27.672C174.878,398.154,170.204,402.828,170.204,408.593z M281.143,395.758
			l0.608,2.396h-51.897l0.608-2.396H281.143z M320.523,491.013H191.082v-71.981h129.442V491.013z M369.586,491.013v-29.421
			c0-5.765-4.675-10.439-10.439-10.439c-5.764,0-10.439,4.673-10.439,10.439v29.421h-7.307v-82.42
			c0-5.765-4.674-10.439-10.439-10.439H303.29l-3.908-15.401c-1.174-4.63-5.342-7.872-10.117-7.872h-18.29
			c9.814-2.521,18.805-7.467,26.195-14.41c2.07,1.725,4.417,3.163,6.997,4.238l67.182,27.992
			c9.699,4.041,17.013,15.962,17.013,27.729v70.583H369.586z"/>
	</g>
</g>
<g>
	<g>
		<path d="M255.803,425.097c-16.501,0-29.925,13.424-29.925,29.925c0,16.501,13.424,29.925,29.925,29.925
			s29.925-13.424,29.925-29.925C285.728,438.521,272.302,425.097,255.803,425.097z M255.803,464.07
			c-4.989,0-9.047-4.059-9.047-9.047s4.059-9.047,9.047-9.047s9.047,4.059,9.047,9.047S260.791,464.07,255.803,464.07z"/>
	</g>
</g>
</svg>