<?xml version="1.0" ?>
<!-- Uploaded to: SVG Repo, www.svgrepo.com, Generator: SVG Repo Mixer Tools -->
<svg width="800px" height="800px" viewBox="-17.33 0 74.666664 74.666664" id="svg2" version="1.1" xmlns="http://www.w3.org/2000/svg" xmlns:svg="http://www.w3.org/2000/svg">
<defs id="defs6">
<clipPath clipPathUnits="userSpaceOnUse" id="clipPath400">
<path d="M 0,64 H 64 V 0 H 0 Z" id="path398"/>
</clipPath>
</defs>
<g id="g392" transform="matrix(1.3333333,0,0,-1.3333333,-22.666263,79.999998)">
<g id="g394">
<g clip-path="url(#clipPath400)" id="g396">
<path d="M 40,28 H 24 v 2 h 16 z m 3,-4 H 21 v 2 h 2 18 2 z m 0,-4 H 40 23 21 v 2 h 22 z m -4,-4 h -3 c -0.553,0 -1,-0.447 -1,-1 v -3 h -7 v 3 c 0,0.553 -0.448,1 -1,1 h -3 v 2 H 39 Z M 43.382,6 H 19.869 l 2.666,4 H 27 36 41.382 Z M 19,33.667 V 56.333 C 19,57.252 19.748,58 20.667,58 H 43.333 C 44.252,58 45,57.252 45,56.333 V 33.667 C 45,32.748 44.252,32 43.333,32 H 41 23 20.667 C 19.748,32 19,32.748 19,33.667 M 43.333,30 C 45.355,30 47,31.645 47,33.667 V 56.333 C 47,58.355 45.355,60 43.333,60 H 20.667 C 18.645,60 17,58.355 17,56.333 V 33.667 C 17,31.645 18.645,30 20.667,30 H 22 v -2 h -2 c -0.552,0 -1,-0.447 -1,-1 v -4 -4 c 0,-0.553 0.448,-1 1,-1 h 2 v -3 c 0,-0.553 0.448,-1 1,-1 h 3 v -2 h -4 c -0.334,0 -0.646,-0.167 -0.832,-0.445 l -4,-6 C 16.963,5.248 16.944,4.854 17.118,4.528 17.292,4.203 17.631,4 18,4 h 27 c 0.347,0 0.668,0.18 0.851,0.475 0.182,0.295 0.199,0.663 0.044,0.972 l -3,6 C 42.725,11.786 42.379,12 42,12 h -5 v 2 h 3 c 0.553,0 1,0.447 1,1 v 3 h 3 c 0.553,0 1,0.447 1,1 v 4 4 c 0,0.553 -0.447,1 -1,1 h -2 v 2 z" id="path402" style="fill:#231f20;fill-opacity:1;fill-rule:nonzero;stroke:none"/>
<g id="g404" transform="translate(23.9048,54)">
<path d="m 0,0 h 1.791 c -1.048,-0.736 -1.96,-1.648 -2.696,-2.695 v 1.791 C -0.905,-0.405 -0.499,0 0,0 m 16.191,0 c 0.499,0 0.904,-0.405 0.904,-0.904 V -2.695 C 16.359,-1.648 15.447,-0.736 14.4,0 Z m 0.904,-17.096 C 17.095,-17.595 16.69,-18 16.191,-18 H 14.4 c 1.047,0.736 1.959,1.648 2.695,2.695 z m -18,8.096 c 0,4.963 4.038,9 9,9 4.963,0 9,-4.037 9,-9 0,-4.963 -4.037,-9 -9,-9 -4.962,0 -9,4.037 -9,9 M 0,-18 c -0.499,0 -0.905,0.405 -0.905,0.904 v 1.791 C -0.169,-16.352 0.743,-17.264 1.791,-18 Z M -2.905,-0.904 V -17.096 C -2.905,-18.697 -1.602,-20 0,-20 h 16.191 c 1.601,0 2.904,1.303 2.904,2.904 V -0.904 C 19.095,0.697 17.792,2 16.191,2 H 0 C -1.602,2 -2.905,0.697 -2.905,-0.904" id="path406" style="fill:#231f20;fill-opacity:1;fill-rule:nonzero;stroke:none"/>
</g>
<g id="g408" transform="translate(21,55)">
<path d="M 0,0 C 0.552,0 1,0.447 1,1 1,1.553 0.552,2 0,2 -0.552,2 -1,1.553 -1,1 -1,0.447 -0.552,0 0,0" id="path410" style="fill:#231f20;fill-opacity:1;fill-rule:nonzero;stroke:none"/>
</g>
<g id="g412" transform="translate(43,55)">
<path d="M 0,0 C 0.553,0 1,0.447 1,1 1,1.553 0.553,2 0,2 -0.553,2 -1,1.553 -1,1 -1,0.447 -0.553,0 0,0" id="path414" style="fill:#231f20;fill-opacity:1;fill-rule:nonzero;stroke:none"/>
</g>
<g id="g416" transform="translate(21,35)">
<path d="m 0,0 c -0.552,0 -1,-0.447 -1,-1 0,-0.553 0.448,-1 1,-1 0.552,0 1,0.447 1,1 0,0.553 -0.448,1 -1,1" id="path418" style="fill:#231f20;fill-opacity:1;fill-rule:nonzero;stroke:none"/>
</g>
<g id="g420" transform="translate(43,35)">
<path d="m 0,0 c -0.553,0 -1,-0.447 -1,-1 0,-0.553 0.447,-1 1,-1 0.553,0 1,0.447 1,1 0,0.553 -0.447,1 -1,1" id="path422" style="fill:#231f20;fill-opacity:1;fill-rule:nonzero;stroke:none"/>
</g>
</g>
</g>
</g>
</svg>