<?xml version="1.0" encoding="iso-8859-1"?>
<!-- Uploaded to: SVG Repo, www.svgrepo.com, Generator: SVG Repo Mixer Tools -->
<svg fill="#000000" height="800px" width="800px" version="1.1" id="Layer_1" xmlns="http://www.w3.org/2000/svg" xmlns:xlink="http://www.w3.org/1999/xlink" 
	 viewBox="0 0 511.999 511.999" xml:space="preserve">
<g>
	<g>
		<path d="M279.151,161.37H39.704c-5.061,0-9.162,4.102-9.162,9.162v153.93c0,5.06,4.101,9.162,9.162,9.162
			c5.061,0,9.163-4.102,9.163-9.162V179.694h221.121v200.911h-52.036c-1.104-19.751-11.662-37.012-27.213-47.332
			c22.856-12.007,38.49-35.969,38.49-63.53c0-39.549-32.175-71.724-71.724-71.724c-9.678,0-19.071,1.897-27.921,5.64
			c-4.659,1.972-6.841,7.347-4.868,12.008c1.971,4.661,7.347,6.841,12.008,4.87c6.577-2.782,13.569-4.193,20.783-4.193
			c11.579,0,22.3,3.716,31.058,10.003c-11.269,11.972-39.588,36.117-83.778,34.865c1.284-8.023,4.377-15.626,9.138-22.334
			c2.928-4.127,1.958-9.847-2.168-12.775c-4.127-2.93-9.848-1.957-12.775,2.168c-8.5,11.977-13.046,26.062-13.187,40.773
			c-0.891,6.962-8.444,70.738,7.982,111.56H48.867v-25.602c0-5.06-4.101-9.162-9.163-9.162c-5.061,0-9.162,4.102-9.162,9.162v34.765
			c0,5.06,4.101,9.162,9.162,9.162h239.446c5.061,0,9.162-4.102,9.162-9.162V170.532C288.313,165.472,284.212,161.37,279.151,161.37
			z M136.042,276.558c0.023,0.055,0.034,0.114,0.059,0.17c1.45,3.272,4.782,5.451,8.365,5.451c4.498,0,8.388-3.383,9.059-7.815
			c0.161-1.068,0.126-2.084-0.059-3.041c23.188-8.853,39.268-22.845,47.944-31.923c5.979,8.625,9.495,19.08,9.495,30.345
			c0,29.445-23.954,53.399-53.399,53.399c-26.096,0-47.865-18.821-52.483-43.598C116.249,279.806,126.594,278.66,136.042,276.558z
			 M104.909,352.801c-2.298-12.463-3.146-25.852-3.256-38.128c6.074,7.534,13.631,13.818,22.232,18.403
			C116.171,338.13,109.664,344.88,104.909,352.801z M114.738,380.606c1.757-21.873,20.105-39.137,42.422-39.137
			s40.664,17.265,42.42,39.137H114.738z"/>
	</g>
</g>
<g>
	<g>
		<path d="M511.723,177.107c-0.591-2.357-2.096-4.382-4.182-5.629L249.647,17.193c-4.341-2.596-9.969-1.183-12.566,3.158
			l-31.065,51.92l-61.203-25.532c-4.67-1.946-10.035,0.258-11.985,4.928l-33.02,79.16H9.162C4.101,130.828,0,134.93,0,139.99
			v346.953c0,5.06,4.101,9.162,9.162,9.162h300.53c5.061,0,9.162-4.102,9.162-9.162v-2.683l1.148,0.688
			c1.473,0.882,3.093,1.3,4.695,1.3c3.116,0,6.155-1.591,7.871-4.459L510.7,184.045
			C511.948,181.959,512.315,179.464,511.723,177.107z M146.216,67.179l50.295,20.981l-8.354,13.964l-27.878-11.625
			c-4.666-1.947-10.034,0.259-11.983,4.929l-14.765,35.4h-13.866L146.216,67.179z M178.649,118.014l-7.667,12.814h-17.597
			l8.296-19.89L178.649,118.014z M300.53,477.781H18.325V149.153h87.524c0.021,0,0.04,0.002,0.061,0.002
			c0.013,0,0.027-0.002,0.04-0.002h33.632c0.016,0,0.033,0.002,0.049,0.002c0.011,0,0.022-0.002,0.033-0.002H300.53V477.781z
			 M318.853,259.831v-74.227c4.983-4.215,10.886-6.769,16.886-7.257c6.309-0.512,11.967,1.374,15.915,5.325
			c2.767,2.763,4.088,6.768,3.72,11.277c-0.414,5.074-2.843,10.073-6.843,14.075c-1.789,1.79-2.682,4.135-2.68,6.481
			c0.001,2.346,0.899,4.69,2.689,6.479c3.582,3.577,9.384,3.572,12.957-0.006c3.995-3.999,8.989-6.428,14.065-6.843
			c4.51-0.364,8.522,0.952,11.282,3.714c8.553,8.561,6.805,24.24-3.892,34.945C373.991,262.751,350.975,267.726,318.853,259.831z
			 M321.547,464.52l-2.693-1.61v-91.895l24.835,14.857c1.473,0.881,3.094,1.3,4.696,1.3c3.116,0,6.155-1.591,7.871-4.459
			l83.698-139.905c2.597-4.343,1.184-9.969-3.159-12.567c-4.341-2.597-9.968-1.184-12.567,3.158L345.235,365.44l-26.381-15.78
			v-71.07c9.947,2.129,20.424,3.449,30.588,3.449c18.198,0,35.354-4.182,46.469-15.288c17.836-17.851,19.584-45.15,3.895-60.856
			c-6.632-6.631-15.763-9.83-25.733-9.024c-0.159,0.013-0.316,0.027-0.475,0.042c0.016-0.158,0.028-0.315,0.042-0.473
			c0.812-9.964-2.397-19.102-9.027-25.725c-7.805-7.814-18.577-11.594-30.361-10.632c-5.289,0.431-10.488,1.818-15.398,4.04V139.99
			c0-5.06-4.101-9.163-9.163-9.163h-81.77l30.698-51.314L448.377,193.03l-9.739,16.279c-2.597,4.343-1.184,9.969,3.159,12.567
			c1.473,0.882,3.094,1.301,4.696,1.301c3.116,0,6.155-1.591,7.871-4.459l14.443-24.141c1.247-2.085,1.615-4.581,1.023-6.938
			c-0.591-2.357-2.096-4.381-4.182-5.628L260.163,59.087c-4.341-2.596-9.968-1.184-12.567,3.158l-41.031,68.586h-14.232
			l55.767-93.205l242.168,144.876L321.547,464.52z"/>
	</g>
</g>
<g>
	<g>
		<path d="M185.738,266.171c-6.179,5.471-2.154,16.007,6.09,16.007c4.426,0,8.291-3.297,9.034-7.649
			C202.283,266.198,192.058,260.575,185.738,266.171z"/>
	</g>
</g>
</svg>