<?xml version="1.0" encoding="iso-8859-1"?>
<!-- Uploaded to: SVG Repo, www.svgrepo.com, Generator: SVG Repo Mixer Tools -->
<svg fill="#000000" height="800px" width="800px" version="1.1" id="Layer_1" xmlns="http://www.w3.org/2000/svg" xmlns:xlink="http://www.w3.org/1999/xlink" 
	 viewBox="0 0 512 512" xml:space="preserve">
<g>
	<g>
		<path d="M488.728,0C484.463,0,27.562,0,23.273,0c-9.864,0-17.86,7.997-17.86,17.86c0,18.145,0,456.107,0,476.279
			c0,9.864,7.997,17.86,17.86,17.86c7.576,0,457.804,0,465.454,0c9.864,0,17.86-7.997,17.86-17.86c0-20.6,0-457.08,0-476.279
			C506.589,7.997,498.592,0,488.728,0z M448.136,35.721h22.732v59.535h-22.732V35.721z M448.136,130.977h22.732v59.535h-22.732
			V130.977z M448.136,226.233h22.732v59.535h-22.732V226.233z M63.865,476.279H41.133v-59.535h22.732V476.279z M63.865,381.023
			H41.133v-59.535h22.732V381.023z M63.865,285.767H41.133v-59.535h22.732V285.767z M63.865,190.512H41.133v-59.535h22.732V190.512z
			 M63.865,95.256H41.133V35.721h22.732V95.256z M412.415,476.279H99.586v-59.535c9.915,0,302.71,0,312.83,0V476.279z
			 M256.004,303.212c46.652,0,85.61,33.562,93.998,77.811H162.006C170.394,336.775,209.353,303.212,256.004,303.212z
			 M213.752,225.241c0-23.297,18.954-42.252,42.252-42.252c23.298,0,42.252,18.955,42.252,42.252s-18.954,42.251-42.252,42.251
			C232.706,267.491,213.752,248.538,213.752,225.241z M412.415,381.023h-26.239c-6.127-44.88-34.999-82.614-74.585-101.175
			c13.832-14.078,22.385-33.36,22.385-54.608c0-42.994-34.978-77.973-77.973-77.973s-77.973,34.979-77.973,77.973
			c0,21.248,8.553,40.53,22.385,54.608c-39.586,18.561-68.458,56.295-74.585,101.175H99.586c0-13.189,0-237.073,0-250.047h312.83
			C412.415,143.957,412.415,367.839,412.415,381.023z M412.415,95.256H99.586V35.721h312.83V95.256z M470.868,476.279h-22.732
			v-59.535h22.732V476.279z M470.868,381.023h-22.732v-59.535h22.732V381.023z"/>
	</g>
</g>
</svg>